# xmcd
#
# Track frame offsets:
#	150
#	9089
#	27902
#	40788
#	58688
#	68715
#	82022
#	94073
#	103299
#	122838
#	149925
#
# Disc length: 2916 seconds
#
# Revision: 1
# Processed by: cddbd v1.4PL0 Copyright (c) Steve Scherf et al.
# Submitted via: audiograbber 1.80
#
DISCID=970b620b
DTITLE=Männerschmerz - Volume 2
DYEAR=1900
DGENRE=
TTITLE0=Now is the month of maying
TTITLE1=Im Garten
TTITLE2=Steckenpferd
TTITLE3=Verzeih mir
TTITLE4=Lumberjack Song
TTITLE5=I kill You
TTITLE6=Du bist mein bester Freund
TTITLE7=Wissenschaft
TTITLE8=Männerschmerz
TTITLE9=Du meine Hand
TTITLE10=Daten-CD
EXTD=
EXTT0=
EXTT1=
EXTT2=
EXTT3=
EXTT4=
EXTT5=
EXTT6=
EXTT7=
EXTT8=
EXTT9=
EXTT10=
PLAYORDER=
